HIERARCHY
ROOT Root
{
	OFFSET 0.00000 0.00000 0.00000
	CHANNELS 6 Xposition Yposition Zposition Zrotation Xrotation Yrotation
	JOINT Hips
	{
		OFFSET 0 0 0	
		CHANNELS 3 Zrotation Xrotation Yrotation
		JOINT Spine
		{
			OFFSET 0 4 0	
			CHANNELS 3 Zrotation Xrotation Yrotation
			JOINT Spine1
			{
				OFFSET 0 19.4 0	
				CHANNELS 3 Zrotation Xrotation Yrotation
				JOINT Spine2
				{
					OFFSET 0 16.6 0	
					CHANNELS 3 Zrotation Xrotation Yrotation
					JOINT LeftCollar
					{
						OFFSET 0 10 0	
						CHANNELS 3 Zrotation Xrotation Yrotation
						JOINT LeftArm
						{
							OFFSET 15.6 -2 3	
							CHANNELS 3 Zrotation Xrotation Yrotation
							JOINT LeftForeArm
							{
								OFFSET 3.5 -27 -1	
								CHANNELS 3 Zrotation Xrotation Yrotation
								JOINT LeftHand
								{
									OFFSET 1 -27 1	
									CHANNELS 3 Zrotation Xrotation Yrotation
									End Site
									{
										OFFSET 0 -15 0
									}
								}
							}
						}
					}
					JOINT RightCollar
					{
						OFFSET 0 10 0	
						CHANNELS 3 Zrotation Xrotation Yrotation
						JOINT RightArm
						{
							OFFSET -15.6 -2 3	
							CHANNELS 3 Zrotation Xrotation Yrotation
							JOINT RightForeArm
							{
								OFFSET -3.5 -27 -1	
								CHANNELS 3 Zrotation Xrotation Yrotation
								JOINT RightHand
								{
									OFFSET -1 -27 1	
									CHANNELS 3 Zrotation Xrotation Yrotation
									End Site
									{
										OFFSET 0 -15 0
									}
								}
							}
						}
					}
					JOINT Neck
					{
						OFFSET 0 10 0	
						CHANNELS 3 Zrotation Xrotation Yrotation
						JOINT Head
						{
							OFFSET 0 12.7 3	
							CHANNELS 3 Zrotation Xrotation Yrotation
							End Site
							{
								OFFSET 0 12.7 3
							}
						}
					}
				}
			}
		}
	}
	JOINT LeftHip
	{
		OFFSET 0 0 0	
		CHANNELS 3 Zrotation Xrotation Yrotation
		JOINT LeftUpLeg
		{
			OFFSET 8.8 -6 0	
			CHANNELS 3 Zrotation Xrotation Yrotation
			JOINT LeftLeg
			{
				OFFSET 0 -39 2	
				CHANNELS 3 Zrotation Xrotation Yrotation
				JOINT LeftFoot
				{
					OFFSET 0 -43 -2	
					CHANNELS 3 Zrotation Xrotation Yrotation
					JOINT LeftFootFront
					{
						OFFSET 0 -7 8.5	
						CHANNELS 3 Zrotation Xrotation Yrotation
						End Site
						{
							OFFSET 0 -0.5 9
						}
					}
				}
				JOINT LeftHeel
				{
					OFFSET 0 -43 -2	
					CHANNELS 3 Zrotation Xrotation Yrotation
					End Site
					{
						OFFSET 0 -7.5 -5
					}
				}
			}
		}
	}
	JOINT RightHip
	{
		OFFSET 0 0 0	
		CHANNELS 3 Zrotation Xrotation Yrotation
		JOINT RightUpLeg
		{
			OFFSET -8.8 -6 0	
			CHANNELS 3 Zrotation Xrotation Yrotation
			JOINT RightLeg
			{
				OFFSET 0 -39 2	
				CHANNELS 3 Zrotation Xrotation Yrotation
				JOINT RightFoot
				{
					OFFSET 0 -43 -2	
					CHANNELS 3 Zrotation Xrotation Yrotation
					JOINT RightFootFront
					{
						OFFSET 0 -7 8.5	
						CHANNELS 3 Zrotation Xrotation Yrotation
						End Site
						{
							OFFSET 0 -0.5 9
						}
					}
				}
				JOINT RightHeel
				{
					OFFSET 0 -43 -2	
					CHANNELS 3 Zrotation Xrotation Yrotation
					End Site
					{
						OFFSET 0 -7.5 -5
					}
				}
			}
		}
	}
}
MOTION
Frames: 11
Frame Time: 0.008
0 95.453 0 -0 0 -0 -5.8777 1.2521 17.603 2.6109 -1.3131 -3.5366 2.6109 -1.3131 -3.5366 2.1986 -1.0922 -2.9747 -0 0 -0 -2.969 0.63468 -0.53928 0.65346 1.6639 -2.6313 -0.46399 -0.57069 6.5219 -0 0 -0 -0.34036 -0.64192 1.7429 -0.55309 1.5471 0.82723 -0.22185 0.5947 1.8691 -1.8255 -3.1302 0.42638 0.21072 -4.1228 -2.5889 -5.8777 1.2521 17.603 8.8989 -11.409 -8.685 0.49315 8.4137 -9.7199 -2.99 -0.81343 0.45018 0 0 -2.5847e-08 -0 0 -0 -5.8777 1.2521 17.603 12.012 -1.5678 -2.7952 0.89175 -5.336 -7.2564 -8.9617 1.2066 -5.3922 0 0 -1.4174e-08 -0 0 -0 
-0.0020376 95.453 0.0022855 -0 0 -0 -5.8834 1.2578 17.612 2.6133 -1.314 -3.5449 2.6133 -1.314 -3.5449 2.2006 -1.093 -2.9817 -0 0 -0 -2.9724 0.63355 -0.53453 0.65396 1.6623 -2.6341 -0.46323 -0.57332 6.5357 -0 0 -0 -0.34489 -0.64141 1.7532 -0.55625 1.5497 0.82847 -0.2164 0.58673 1.8735 -1.828 -3.1322 0.43847 0.20971 -4.1252 -2.5839 -5.8834 1.2578 17.612 8.9023 -11.416 -8.6903 0.4909 8.4157 -9.7239 -2.9879 -0.81629 0.45222 0.00091889 0.00096512 -0.0013899 -0 0 -0 -5.8834 1.2578 17.612 12.017 -1.5749 -2.8053 0.89168 -5.3345 -7.2536 -8.9617 1.2033 -5.3922 -0.0019682 -0.0003585 0.0012213 -0 0 -0 
-0.0041958 95.454 0.0046703 -0 0 -0 -5.8904 1.265 17.622 2.6161 -1.3151 -3.5549 2.6161 -1.3151 -3.5549 2.203 -1.0939 -2.9901 -0 0 -0 -2.9764 0.63191 -0.52886 0.65456 1.6603 -2.637 -0.46235 -0.56962 6.5433 -0 0 -0 -0.35025 -0.64125 1.7659 -0.56005 1.5527 0.8299 -0.2153 0.58525 1.8735 -1.8309 -3.1348 0.45295 0.20861 -4.1282 -2.578 -5.8904 1.265 17.622 8.9065 -11.425 -8.696 0.48807 8.4181 -9.7291 -2.9843 -0.81887 0.45337 0.0012026 0.0012816 -0.0017427 -0 0 -0 -5.8904 1.265 17.622 12.022 -1.5835 -2.8171 0.89154 -5.3325 -7.25 -8.9639 1.1989 -5.3912 -0.0024401 -0.00044118 0.0015051 -0 0 -0 
-0.0064806 95.455 0.007158 -0 0 -0 -5.8985 1.2736 17.634 2.6193 -1.3163 -3.5665 2.6193 -1.3163 -3.5665 2.2057 -1.0948 -2.9999 -0 0 -0 -2.9811 0.6296 -0.52218 0.65529 1.6578 -2.6402 -0.46127 -0.565 6.5516 -0 0 -0 -0.35634 -0.64155 1.781 -0.56443 1.5563 0.8316 -0.21423 0.5838 1.8733 -1.8341 -3.1381 0.46969 0.20746 -4.132 -2.5711 -5.8985 1.2736 17.634 8.9115 -11.436 -8.7015 0.48461 8.421 -9.7359 -2.9799 -0.8219 0.4547 0.0015174 0.0016653 -0.0021054 -0 0 -0 -5.8985 1.2736 17.634 12.029 -1.5937 -2.8302 0.89131 -5.3299 -7.2459 -8.9667 1.1934 -5.3902 -0.0029357 -0.0005423 0.0018318 -0 0 -0 
-0.0088974 95.455 0.0097517 -0 0 -0 -5.9075 1.2836 17.646 2.6228 -1.3176 -3.5794 2.6228 -1.3176 -3.5794 2.2087 -1.0958 -3.0107 -0 0 -0 -2.9861 0.62652 -0.51449 0.65612 1.655 -2.6438 -0.45998 -0.55948 6.5602 -0 0 -0 -0.36304 -0.64237 1.7981 -0.56927 1.5602 0.83359 -0.21334 0.58269 1.8727 -1.8374 -3.1421 0.48813 0.20631 -4.1365 -2.5636 -5.9075 1.2836 17.646 8.9173 -11.449 -8.7062 0.48055 8.4243 -9.7443 -2.9747 -0.82525 0.45618 0.0018218 0.0020512 -0.0024732 -0 0 -0 -5.9075 1.2836 17.646 12.037 -1.6052 -2.8437 0.89089 -5.3267 -7.2414 -8.9703 1.1868 -5.3893 -0.0034016 -0.00062213 0.0021103 -0 0 -0 
-0.011451 95.456 0.012455 -0 0 -0 -5.9168 1.2947 17.658 2.6264 -1.3189 -3.593 2.6264 -1.3189 -3.593 2.2118 -1.0968 -3.0221 -0 0 -0 -2.9913 0.62264 -0.50602 0.65697 1.6521 -2.648 -0.45849 -0.55334 6.5687 -0 0 -0 -0.37006 -0.64372 1.8166 -0.57437 1.5643 0.83588 -0.21283 0.58213 1.8717 -1.8408 -3.1468 0.50741 0.20517 -4.1415 -2.5559 -5.9168 1.2947 17.658 8.9236 -11.462 -8.7097 0.47594 8.4277 -9.7543 -2.9688 -0.82878 0.45768 0.0020777 0.0024459 -0.0027783 -0 0 -0 -5.9168 1.2947 17.658 12.045 -1.6178 -2.8565 0.89026 -5.3227 -7.2372 -8.9746 1.1793 -5.3884 -0.0037691 -0.00068969 0.0023451 -0 0 -0 
-0.014147 95.456 0.01527 -0 0 -0 -5.9262 1.3065 17.67 2.63 -1.32 -3.6068 2.63 -1.32 -3.6068 2.2148 -1.0977 -3.0337 -0 0 -0 -2.9964 0.61804 -0.49702 0.65783 1.6492 -2.653 -0.45683 -0.54713 6.5769 -0 0 -0 -0.37721 -0.64555 1.8356 -0.57955 1.5684 0.83836 -0.21274 0.5822 1.8702 -1.8441 -3.1519 0.52665 0.20401 -4.147 -2.5484 -5.9262 1.3065 17.67 8.9302 -11.475 -8.7115 0.47094 8.4311 -9.7655 -2.9623 -0.83233 0.45915 0.0022412 0.0028011 -0.0029687 -0 0 -0 -5.9262 1.3065 17.67 12.054 -1.631 -2.8679 0.88934 -5.3179 -7.2339 -8.9796 1.1709 -5.3874 -0.0040074 -0.00073129 0.0025032 -0 0 -0 
-0.01699 95.457 0.018202 -0 0 -0 -5.9353 1.3188 17.682 2.6334 -1.321 -3.6208 2.6334 -1.321 -3.6208 2.2177 -1.0986 -3.0455 -0 0 -0 -3.0015 0.61291 -0.48758 0.65874 1.6463 -2.6586 -0.45496 -0.54159 6.5855 -0 0 -0 -0.38447 -0.64764 1.8552 -0.58485 1.5725 0.84108 -0.21274 0.58244 1.8686 -1.8473 -3.1576 0.54575 0.20273 -4.1529 -2.5412 -5.9353 1.3188 17.682 8.9369 -11.488 -8.712 0.46552 8.4345 -9.7778 -2.9554 -0.83589 0.46068 0.0023601 0.0031277 -0.003152 -0 0 -0 -5.9353 1.3188 17.682 12.063 -1.6447 -2.8775 0.88807 -5.3122 -7.2319 -8.9853 1.1618 -5.3863 -0.0042358 -0.00077348 0.0026407 -0 0 -0 
-0.019982 95.458 0.021251 -0 0 -0 -5.9433 1.3307 17.693 2.6364 -1.3219 -3.6342 2.6364 -1.3219 -3.6342 2.2202 -1.0992 -3.0568 -0 0 -0 -3.0063 0.60772 -0.47834 0.65961 1.6435 -2.6644 -0.4529 -0.53669 6.5929 -0 0 -0 -0.39139 -0.64985 1.8741 -0.59 1.5766 0.8438 -0.21336 0.58363 1.8664 -1.8503 -3.1633 0.56345 0.20132 -4.1587 -2.5349 -5.9433 1.3307 17.693 8.9432 -11.5 -8.7112 0.45991 8.4375 -9.7905 -2.9483 -0.83919 0.46205 0.0023554 0.0033061 -0.0031247 -0 0 -0 -5.9433 1.3307 17.693 12.071 -1.6582 -2.8847 0.8864 -5.3058 -7.2316 -8.9915 1.1524 -5.3848 -0.0042487 -0.00079232 0.0026354 -0 0 -0 
-0.023126 95.458 0.024422 -0 0 -0 -5.9504 1.342 17.702 2.639 -1.3226 -3.6473 2.639 -1.3226 -3.6473 2.2224 -1.0997 -3.0678 -0 0 -0 -3.0108 0.60281 -0.46935 0.66058 1.6407 -2.6704 -0.4506 -0.53329 6.6004 -0 0 -0 -0.39804 -0.6518 1.8925 -0.59497 1.5806 0.84665 -0.21395 0.58483 1.8643 -1.8532 -3.1691 0.57998 0.19974 -4.1644 -2.5295 -5.9504 1.342 17.702 8.9491 -11.511 -8.7097 0.45407 8.4402 -9.8034 -2.9413 -0.84234 0.46351 0.0023305 0.0034706 -0.0030683 -0 0 -0 -5.9504 1.342 17.702 12.08 -1.6715 -2.8904 0.88433 -5.2987 -7.2328 -8.9982 1.1428 -5.383 -0.0042667 -0.00077841 0.0026273 -0 0 -0 
-0.026425 95.459 0.027715 -0 0 -0 -5.9565 1.3528 17.712 2.6412 -1.3232 -3.6602 2.6412 -1.3232 -3.6602 2.2243 -1.1002 -3.0786 -0 0 -0 -3.0152 0.59847 -0.46051 0.66165 1.638 -2.6763 -0.44793 -0.53121 6.6079 -0 0 -0 -0.40448 -0.65333 1.9102 -0.59983 1.5846 0.84957 -0.2145 0.58608 1.8624 -1.856 -3.1746 0.59556 0.19796 -4.1698 -2.5248 -5.9565 1.3528 17.712 8.9547 -11.52 -8.7082 0.44792 8.4426 -9.8161 -2.9343 -0.84536 0.4651 0.0023209 0.0036191 -0.003008 -0 0 -0 -5.9565 1.3528 17.712 12.089 -1.6847 -2.8956 0.88189 -5.291 -7.2347 -9.0052 1.1333 -5.3808 -0.0043233 -0.00078169 0.0026128 -0 0 -0 
